<svg width="86" height="119" viewBox="0 0 86 119" xmlns="http://www.w3.org/2000/svg"><g stroke="#000" fill="none" fill-rule="evenodd" stroke-linecap="round"><path d="m27.18 7.538-.686-.626a19.097 19.097 0 0 0-10.906-4.667l-.922-.06M71.122 2.186l-.956.082A19.147 19.147 0 0 0 59.66 6.889l-.708.65M60.405 116.562l.012.39M66.172 116.952l.011-.39M19.948 116.562l.012.39M25.715 116.952l.011-.39M65.983 117.142l.094-.023.072-.072.022-.094M60.417 116.953l.023.095.072.07.094.024M25.525 117.142l.096-.023.07-.072.023-.094M19.96 116.953l.023.095.072.07.094.024M73.77 116.468l.083-.083.069-.106.084-.237M74.005 116.054l.84-4.963M10.129 111.092l.816 5.14.035.106.06.095.082.07.106.048.107.012M80.126 111.092v1.938h-5.612M64.86 117.579H61.08M65.51 117.578h-.53M25.053 117.579H20.62M43.06 111.127h41.815M1.256 111.127H43.06M43.06 7.503H3.159h.01M82.962 7.503H43.06M43.06 1.595h32.624M10.448 1.595H43.06M10.448 1.276h65.235M10.626 2.186h64.88M10.851.886h64.431M44.171 111.092l-.048 5.14M41.961 111.092l.048 5.14M47.598 111.092l-.119 5.14M40.768 116.232l-.047-5.14M38.534 111.092l.118 5.14M45.34 116.562v-3.899l.024-1.572M45.352 116.562h-.01M40.791 116.562h-.01v-.023l-.013-.07v-.238M40.791 112.663l-.023-1.572M50.988 111.092l-.213 5.14M48.708 116.232l.118-5.14M37.424 116.232l-.118-5.14M35.144 111.092l.213 5.14M48.673 111.092l-.035 1.572M48.648 116.562l.012-.023.023-.07.014-.107.01-.13M48.648 116.562h-.01M37.495 116.562h-.012l-.012-.023-.024-.07-.01-.107-.013-.13M37.495 112.663l-.035-1.572M54.285 111.092l-.296 5.14M51.98 116.232l.213-5.14M34.15 116.232l-.213-5.14M31.847 111.092l.295 5.14M51.934 111.092l-.059 1.572M51.874 116.562l.036-.023.035-.07.024-.107.011-.13M51.874 116.562h.013M34.257 116.562l-.034-.023-.036-.07-.025-.107-.01-.13M34.257 112.663l-.059-1.572M44.1 116.562h-2.08M44.123 116.232v.236l-.012.072-.01.023M42.009 116.232v.236l.01.072v.023M47.42 116.562h-2.067M47.48 116.232l-.013.129-.011.107-.024.072-.013.023M40.78 116.562h-2.068M38.652 116.232l.012.129.012.107.024.072.011.023M41.843 115.593h-.827M42.032 116.562h-1.24M41.016 115.594l-.105-.732-.072-.733-.036-.733-.011-.733M41.843 115.594l.106-.745.036-.756M45.116 115.593h-.827M45.341 116.562h-1.24M45.116 115.594l.105-.732.072-.733.036-.733.011-.733M44.29 115.594l-.107-.745-.037-.756M50.681 116.562H48.65M50.776 116.232l-.012.129-.024.107-.024.072-.036.023M37.482 116.562H35.45M35.356 116.232l.011.129.023.107.026.072.035.023M57.463 111.092l-.378 5.14M55.16 116.232l.283-5.14M30.973 116.232l-.284-5.14M28.668 111.092l.38 5.14M31.114 116.562l-.048-.023-.047-.07-.023-.107-.025-.13M31.126 112.663l-.082-1.572M31.126 116.562h-.012M55.09 111.092l-.084 1.572M55.018 116.562l.047-.023.048-.07.023-.107.024-.13M55.018 116.562h-.012M38.594 115.593h-.827M38.724 116.562h-1.229M37.767 115.594l-.118-.732-.071-.733-.06-.733-.022-.733M38.594 115.593l.034-.426M48.365 115.593h-.827M48.637 116.562h-1.24M48.365 115.594l.118-.732.071-.733.06-.733.022-.733M47.538 115.593l-.036-.426M53.86 116.562h-1.986M53.99 116.232l-.012.129-.036.107-.035.072-.047.023M34.257 116.562h-1.985M32.143 116.232l.01.129.037.107.035.072.047.023M35.332 115.593h-.756M35.486 116.562h-1.229M34.576 115.594l-.118-.732-.095-.733-.106-1.466M51.556 115.593H50.8M51.874 116.562h-1.229M51.556 115.594l.118-.732.095-.733.105-1.466M48.354 115.593l-.036-1.086M37.814 114.506h.791M40.874 114.506h1.087M44.171 114.506h1.074M47.526 114.506h.792M37.814 114.506l-.034 1.087M48.578 113.726H47.55M45.305 113.726H44.1M42.032 113.726h-1.206M38.594 113.726h-1.04M48.022 115.593l-.035-1.086M38.144 114.506l-.034 1.087M60.476 111.092l-.448 5.14M58.196 116.232l.366-5.14M27.935 116.232l-.378-5.14M25.655 111.092l.437 5.14M28.113 116.562l-.07-.023-.049-.07-.047-.107-.012-.13M28.125 112.663l-.118-1.572M28.125 116.562h-.012M58.125 111.092l-.118 1.572M58.019 116.562l.07-.023.048-.07.035-.107.024-.13M58.02 116.562h-.013M31.48 115.594l-.13-.732-.095-.733-.128-1.466M32.106 115.593h-.626M32.284 116.562h-1.158M54.651 115.594l.13-.732.094-.733.13-1.466M54.651 115.593h-.627M55.006 116.562h-1.158M57.085 116.232l-.011.129-.048.107-.046.072-.06.023h-1.902M29.047 116.232l.011.129.048.107.046.072.06.023h1.902M54.096 114.506h.745M57.215 114.506h.614M60.205 114.506h.426M63.324 113.726h-.284M60.748 113.726h-.497M57.924 113.726h-.649M54.934 113.726h-.79M31.976 113.726h-.779M28.846 113.726h-.638M25.868 113.726h-.496M23.104 113.726h-.297M25.502 114.506h.413M28.29 114.506h.603M31.291 114.506h.745M28.515 115.594l-.142-.732-.106-.733-.142-1.466M29 115.593h-.485M29.224 116.562h-1.099M57.617 115.594l.142-.732.106-.733.142-1.466M57.617 115.593h-.484M58.007 116.562h-1.099M60.027 116.232l-.023.129-.048.107-.059.072-.07.023h-1.809M26.093 116.232l.034.129.048.107.06.072.07.023h1.808M63.301 111.092l-.509 5.14M61.08 116.232l.436-5.14M25.053 116.232l-.437-5.14M22.831 111.092l.51 5.14M25.266 116.562l-.071-.023-.072-.07-.046-.107-.024-.13M25.277 112.663l-.13-1.572M25.277 116.562h-.012M60.984 111.127l-.13 1.536M60.866 116.562l.071-.023.071-.07.047-.107.024-.13M60.866 116.562h-.012M25.702 115.594l-.142-.732-.118-.733-.166-1.466M26.045 115.593h-.342M26.305 116.562h-1.027M60.429 115.594l.143-.732.118-.733.166-1.466M60.43 115.593h-.343M60.854 116.562h-1.039M47.68 115.593l-.035-1.086M38.487 114.506l-.035 1.087M62.792 116.232l-.036.129-.046.107-.07.072-.096.023h-1.677M23.34 116.232l.023.129.059.107.07.072.095.023h1.678M65.9 111.127l-.568 5.104M63.761 116.232l.51-5.14M22.37 116.232l-.508-5.14M20.231 111.127l.567 5.104M22.62 116.562l-.084-.023-.083-.07-.048-.107-.034-.13M22.643 112.663l-.166-1.572M22.643 116.562h-.024M63.655 111.092l-.166 1.572M63.513 116.562l.083-.023.083-.07.047-.107.035-.13M63.513 116.562h-.023M60.252 115.593l-.048-1.086" stroke-linejoin="round"/><path stroke-linejoin="round" d="m51.484 115.594.023-1.867h.285M50.823 115.593l.023-1.217M50.882 113.726h.627M34.624 113.726l.023 1.867M35.31 115.593l-.036-1.217M35.25 113.726h-.627M25.915 114.506l-.035 1.087M34.624 113.726h-.296M23.09 115.594l-.152-.732-.118-.733-.177-1.466M23.28 115.593h-.189M23.588 116.562h-.945M63.04 115.594l.153-.732.118-.733.177-1.466M63.04 115.593h-.189M63.49 116.562h-.946M65.333 116.232l-.035.129-.06.107-.083.072-.093.023h-1.549M20.799 116.232l.035.129.06.107.082.072.094.023M22.62 116.562h-1.55M68.263 111.092l-.638 5.14M66.207 116.232l.58-5.14M19.925 116.232l-.579-5.14M17.87 111.092l.637 5.14M20.196 116.562l-.105-.023-.084-.07-.059-.107-.023-.13M20.22 112.663l-.177-1.572M20.22 116.562h-.023M66.09 111.092l-.178 1.572M65.936 116.562l.095-.023.094-.07.059-.107.023-.13M65.935 116.562h-.024M65.7 116.562l.01-.969h-.272M20.433 116.562l-.011-.969h.272M60.606 117.142h2.683M65.983 117.142h-2.694M22.843 117.142h2.683M22.843 117.142H20.15M67.625 116.232l-.036.129-.059.107-.094.072-.106.023h-1.395M18.507 116.232l.023.129.072.107.094.072.106.023M20.196 116.562h-1.394M65.911 112.663l-.188 1.464-.13.734-.142.732M65.911 116.562h-.213"/><path stroke-linejoin="round" d="m20.68 115.594-.141-.732-.13-.733-.19-1.466M20.433 116.562h-.213M57.724 114.955l-.012-.449M28.42 114.506l-.023.45M70.343 111.092l-.686 5.14M68.416 116.232l.627-5.14M17.715 116.232l-.626-5.14M15.79 111.092l.685 5.14M18.022 116.562l-.105-.023-.096-.07-.07-.107-.037-.13M18.046 112.663l-.2-1.572M18.046 116.562h-.023M68.286 111.092l-.2 1.572M68.11 116.562l.105-.023.094-.07.072-.107.037-.13M68.11 116.562h-.024M18.176 113.55l-.13-.887M18.802 116.562h-.756M67.956 113.55l.13-.887M68.086 116.562h-.756M65.781 113.726h-.165M20.362 113.726h.153M69.657 116.232l-.035.129-.07.107-.108.072-.106.023H68.11M16.475 116.232l.034.129.07.107.109.072.105.023M18.022 116.562h-1.229M72.127 111.092l-.732 5.14M70.331 116.232l.685-5.14M15.801 116.232l-.685-5.14M14.005 111.092l.732 5.14M16.12 116.562l-.118-.023-.095-.07-.07-.107-.036-.13M16.144 116.562h-.024M70.012 116.562l.118-.023.095-.07.07-.107.035-.13M70.012 116.562h-.023M16.734 116.562h-.59M69.988 116.562h-.66"/><path stroke-linejoin="round" d="m71.395 116.232-.035.129-.083.107-.107.072-.118.023h-1.04M14.737 116.232l.035.129.083.107.107.072.118.023M16.12 116.562h-1.04M15.01 116.562h-.46M71.583 116.562h-.53M73.58 111.092l-.756 5.14M71.961 116.232l.722-5.104M14.17 116.232l-.72-5.104M12.552 111.092l.756 5.14M14.513 116.562l-.118-.023-.106-.07-.084-.107-.034-.13M14.55 116.562h-.036M71.62 116.562l.117-.023.106-.07.071-.107.047-.13M71.62 116.562h-.037"/><path stroke-linejoin="round" d="m72.824 116.232-.048.129-.082.107-.107.072-.129.023h-.84M13.308 116.232l.048.129.082.107.106.072.119.023M14.513 116.562h-.85M72.883 116.562h-.354M13.603 116.562h-.355M74.833 111.092l-.84 4.95-.046.143-.024.035-.024.012h-.626l.756-5.14M12.858 116.232l-.756-5.14M11.417 111.092l.792 5.14M72.906 116.562l.13-.023.106-.07.083-.107.047-.13M72.906 116.562h-.023M13.226 116.562l-.13-.023-.107-.07-.082-.107-.047-.13M13.25 116.562h-.025M12.21 116.232l.046.129.083.107.106.072.13.023M13.226 116.562h-.65"/><path stroke-linejoin="round" d="m73.533 116.562.105-.01.095-.049.083-.07.06-.095.023-.107M73.533 116.562h-.627M12.517 116.562h-.225M11.89 116.232l-.792-5.14M10.65 111.127l.791 5.104M12.256 116.562l-.13-.023-.106-.07-.095-.107-.035-.13M12.292 116.562h-.035M11.44 116.232l.048.129.082.107.118.072.143.023M12.256 116.562h-.426M11.76 116.562h-.095M11.252 116.232l-.804-5.14M10.212 111.092l.815 5.14M11.63 116.562l-.13-.023-.118-.07-.083-.107-.048-.13M11.665 116.562h-.034"/><path stroke-linejoin="round" d="m11.027 116.232.047.129.083.107.118.072.142.023h.153M10.97 116.232l-.817-5.14"/><path stroke-linejoin="round" d="m11.347 116.562-.13-.023-.118-.07-.084-.107-.047-.13M11.382 116.562h-.035M65.628 117.46h-4.667M66.172 116.952h-5.754M74.005 116.055v-.011h-.011M10.97 116.232h-.025"/><path d="m2.874 7.605-2 103M82.874 7.605l2 103"/></g></svg>