<?xml version="1.0" encoding="UTF-8"?>
<svg width="308" height="148" viewBox="0 0 308 148" fill="none" xmlns="http://www.w3.org/2000/svg">
<g>
<path d="M284.024 2H24.1324C19.0596 2 14.3305 4.56392 11.5624 8.81491L4.43003 19.7682C2.84422 22.2035 2 25.0471 2 27.9533V120.132C2 122.985 2.8135 125.778 4.34508 128.185L11.5793 139.553C14.3326 143.88 19.1057 146.5 24.2342 146.5H283.921C288.965 146.5 293.67 143.966 296.446 139.755L304.024 128.256C305.639 125.806 306.5 122.936 306.5 120.001V28.0855C306.5 25.0968 305.607 22.1762 303.936 19.6983L296.46 8.61287C293.671 4.47838 289.011 2 284.024 2Z" fill="white" stroke="black" stroke-width="3"/>
<rect x="297" y="34" width="5" height="16" rx="1" fill="black" stroke="black" stroke-width="2"/>
<circle cx="299.5" cy="54.5" r="1.5" fill="black"/>
<circle cx="299.5" cy="58.5" r="1.5" fill="black"/>
<circle cx="299.5" cy="62.5" r="1.5" fill="black"/>
<circle cx="299.5" cy="66.5" r="1.5" fill="black"/>
<circle cx="299.5" cy="70.5" r="1.5" fill="black"/>
</g>
</svg>
