<svg xmlns="http://www.w3.org/2000/svg" width="90.278" height="25.882" viewBox="0 0 90.278 25.882"><path d="M87.148 9.907a1.831 1.831 0 1 1 1.3.538 1.767 1.767 0 0 1-1.3-.538zm.231-2.362a1.509 1.509 0 1 0 1.066-.441 1.452 1.452 0 0 0-1.067.441zm.415 1.967v-1.8a.1.1 0 0 1 .113-.113h.558q.712 0 .712.538a.467.467 0 0 1-.338.456v.021a.415.415 0 0 1 .21.251l.251.63a.149.149 0 0 1 .016.056q0 .056-.169.056h-.118c-.1 0-.152-.02-.169-.061l-.225-.559a.258.258 0 0 0-.287-.169h-.113v.7c0 .061-.058.092-.174.092h-.092q-.176-.005-.176-.097zm.441-1.076h.271a.2.2 0 0 0 .154-.074.253.253 0 0 0 .066-.174.206.206 0 0 0-.064-.159.251.251 0 0 0-.176-.059h-.251zM14.872 18.772a13.058 13.058 0 0 1-.119 1.6s-.015.1-.308.443a3.165 3.165 0 0 1-1.189.834 7.4 7.4 0 0 1-1.77.479 14.221 14.221 0 0 1-2.17.157 15.479 15.479 0 0 1-2.116-.14 7.269 7.269 0 0 1-1.793-.462 3.56 3.56 0 0 1-1.283-.834 1.384 1.384 0 0 1-.338-.485 9.142 9.142 0 0 1-.169-1.59v-4.523a5.8 5.8 0 0 1 .26-1.564 1.89 1.89 0 0 1 .34-.478 3.112 3.112 0 0 1 1.175-.834 7.019 7.019 0 0 1 1.727-.479 12.8 12.8 0 0 1 1.322-.128.842.842 0 0 0 .8-.833V7.944a.776.776 0 0 0-.8-.778s-.679.022-1.435.115a14.958 14.958 0 0 0-2.139.421 10.8 10.8 0 0 0-1.894.71 6.459 6.459 0 0 0-1.521 1.015A4.534 4.534 0 0 0 .4 10.754a3.1 3.1 0 0 0-.291.838A13.872 13.872 0 0 0 0 13.194v6.636a13.872 13.872 0 0 0 .112 1.6 3.082 3.082 0 0 0 .293.847 4.506 4.506 0 0 0 1.031 1.321 6.549 6.549 0 0 0 1.536 1.015 10.929 10.929 0 0 0 1.908.71 15.281 15.281 0 0 0 2.153.421 18.581 18.581 0 0 0 4.557 0 15.23 15.23 0 0 0 2.158-.421 10.893 10.893 0 0 0 1.9-.71 6.489 6.489 0 0 0 1.525-1.015 4.3 4.3 0 0 0 .979-1.329 2.564 2.564 0 0 0 .27-.833 24.57 24.57 0 0 0 .064-1.605V1.065a.9.9 0 0 0-.8-.877L15.669.004a.722.722 0 0 0-.8.731zM37.18 18.772a12.221 12.221 0 0 1-.127 1.6s-.016.1-.31.444a3.182 3.182 0 0 1-1.194.834 7.415 7.415 0 0 1-1.772.479 14.233 14.233 0 0 1-2.171.157 15.482 15.482 0 0 1-2.116-.14 7.272 7.272 0 0 1-1.793-.462 3.521 3.521 0 0 1-1.274-.834 1.362 1.362 0 0 1-.336-.484 9.594 9.594 0 0 1-.161-1.591V7.535a.722.722 0 0 0-.8-.731l-2.017.184a.9.9 0 0 0-.8.877v11.963a14.7 14.7 0 0 0 .106 1.6 3.01 3.01 0 0 0 .29.846 4.49 4.49 0 0 0 1.026 1.321 6.53 6.53 0 0 0 1.533 1.015 10.912 10.912 0 0 0 1.907.71 15.265 15.265 0 0 0 2.152.421 18.574 18.574 0 0 0 4.557 0 15.22 15.22 0 0 0 2.158-.421 10.893 10.893 0 0 0 1.9-.71 6.49 6.49 0 0 0 1.525-1.015 4.328 4.328 0 0 0 .988-1.329 2.632 2.632 0 0 0 .272-.834c.038-.441.07-1.163.07-1.6V7.866a.9.9 0 0 0-.8-.877l-2.017-.184a.722.722 0 0 0-.8.731zM59.488 18.772a11.478 11.478 0 0 1-.135 1.6s-.018.1-.311.446a3.2 3.2 0 0 1-1.2.834 7.438 7.438 0 0 1-1.774.479 14.248 14.248 0 0 1-2.172.157 15.491 15.491 0 0 1-2.117-.14 7.272 7.272 0 0 1-1.793-.462 3.48 3.48 0 0 1-1.265-.834 1.335 1.335 0 0 1-.334-.482 10.059 10.059 0 0 1-.154-1.593V7.535a.722.722 0 0 0-.8-.731l-2.017.184a.9.9 0 0 0-.8.877v11.963a15.622 15.622 0 0 0 .1 1.6 2.928 2.928 0 0 0 .287.845 4.475 4.475 0 0 0 1.021 1.321 6.519 6.519 0 0 0 1.531 1.015 10.911 10.911 0 0 0 1.906.71 15.255 15.255 0 0 0 2.152.421 18.57 18.57 0 0 0 4.557 0 15.222 15.222 0 0 0 2.158-.421 10.9 10.9 0 0 0 1.9-.71 6.49 6.49 0 0 0 1.525-1.015 4.363 4.363 0 0 0 1-1.329 2.689 2.689 0 0 0 .275-.834c.042-.44.076-1.162.076-1.6V7.866a.9.9 0 0 0-.8-.877l-2.017-.184a.722.722 0 0 0-.8.731zM84.77 9.033a.612.612 0 0 0-.136-.991L82.8 6.954a1.063 1.063 0 0 0-1.247.171l-5.436 5.682a.765.765 0 0 1-1.112 0l-5.436-5.682a1.063 1.063 0 0 0-1.247-.171l-1.834 1.088a.612.612 0 0 0-.136.991l6.131 6.41a.851.851 0 0 1 0 1.162l-6.13 6.407a.662.662 0 0 0 .108 1.035l1.725 1.18a.982.982 0 0 0 1.219-.127l5.6-5.857a.764.764 0 0 1 1.111 0l5.591 5.846a.987.987 0 0 0 1.221.13l1.732-1.174a.658.658 0 0 0 .11-1.032l-6.13-6.407a.851.851 0 0 1 0-1.162z" fill="#53565a"/></svg>