<svg width="65" height="143"  viewBox="0 0 65 143" xmlns="http://www.w3.org/2000/svg"><g stroke="#000" fill="none" fill-rule="evenodd"><path d="M34.024 106.271a1.656 1.656 0 1 0-3.313 0 1.656 1.656 0 1 0 3.313 0zM34.024 110.664a1.656 1.656 0 1 0-3.312 0 1.656 1.656 0 0 0 3.312 0zM34.024 115.058a1.656 1.656 0 1 0-3.312 0 1.656 1.656 0 0 0 3.312 0zM34.024 119.452a1.656 1.656 0 1 0-3.312-.001 1.656 1.656 0 0 0 3.312 0zM64.134 141.549l-.056-2.118a.353.353 0 0 0-.353-.345H1.003a.355.355 0 0 0-.354.345 498.96 498.96 0 0 1-.056 2.118c.006 0 .01.002.014.004l2.17.005h59.091a659.36 659.36 0 0 0 1.99-.005h.25c.008.003.018.004.026.005a.32.32 0 0 1-.104.25M5.599 82.59h53.478M39.075 132.024h19.709c.131 0 .24-.015.346-.105.013-.014 0-.026 0-.037V1.67c0-.122-.02-.206-.16-.222M5.758 1.447c-.138.007-.16.088-.16.208v75.143a79034.234 79034.234 0 0 0 .014 51.805v3.229c0 .113.019.192.15.192h20.109M54.375 132.024h.445M18.228 139.086l-.062-7.062M46.5 139.086l.062-7.062"/><path d="M5.758 1.447H58.98a.175.175 0 0 0 .129-.049.163.163 0 0 0 .055-.128V.918a.177.177 0 0 0-.177-.177H5.74a.176.176 0 0 0-.176.177v.352a.185.185 0 0 0 .194.177M38.897 132.11h.001M25.81 132.002h13.112M25.706 120.702h.012M39.013 120.702h.012M38.905 132.118l-.008-.008M39.013 132.011l-.009-.009M25.826 101.4l.008.008M25.718 101.507l.01.01M38.897 101.408l.008-.008M39.005 101.516l.01-.009M39.025 101.52v19.183M25.81 101.516h13.113M38.905 101.4h-13.08M25.727 132.002l-.01.01M25.835 132.11l-.008.008M25.706 132.01c0 .038.02.074.054.094M25.816 132.108l.019.001M25.718 132.011l.001.02M25.734 101.48a.083.083 0 0 1-.004.014M25.747 101.435a.08.08 0 0 0-.016.016M25.826 101.4l-.02.001M25.833 101.409a.107.107 0 0 0-.099.07M25.757 101.425c-.003.003-.007.005-.01.01M25.708 101.5v.02M38.998 132.039l.004-.013M38.996 132.086a.105.105 0 0 0 .029-.062M38.906 132.119l.02-.001M39.026 132.024v-.015M39.005 101.517a.107.107 0 0 0-.107-.108M39.014 101.508l-.001-.02M39.026 120.72v11.29M25.705 132.01v-11.29"/><path d="M25.732 101.45a.107.107 0 0 0-.023.052M39.026 101.52a.112.112 0 0 0-.041-.085M38.899 132.11a.104.104 0 0 0 .053-.015M38.951 132.095a.11.11 0 0 0 .047-.057M25.718 132.011v-11.29M25.718 120.72v-.019M25.718 101.52v-.013"/><path d="M25.718 101.508c0-.026.011-.054.028-.073M25.757 101.425a.1.1 0 0 1 .05-.023M38.906 101.4c.02 0 .044.006.062.02a.084.084 0 0 1 .018.015"/><path d="M38.985 101.434a.12.12 0 0 1 .027.055M39.013 101.507v.012M39.013 101.52v19.183M39.013 120.702v.02M39.013 120.72v11.29M39.014 132.011a.106.106 0 0 1-.007.038M39.007 132.048a.116.116 0 0 1-.032.046.123.123 0 0 1-.05.023M25.826 132.119a.106.106 0 0 1-.038-.007M25.789 132.112a.12.12 0 0 1-.045-.031.109.109 0 0 1-.023-.05M38.923 101.516h.08M25.81 101.516v30.485M39.005 132.002v-30.485M25.835 101.408h13.062M25.73 101.494l-.004.021M39.002 132.025l.003-.023M25.81 101.516a.32.32 0 0 1 .004-.069l.007-.024c.003-.004.006-.01.01-.012M25.831 101.41h.004M25.727 101.516h.066M25.794 101.516h.015M25.81 132.002h-.084"/><path d="M25.728 132.002a.11.11 0 0 0 .089.107M25.835 132.11h-.006a.031.031 0 0 1-.005-.01l-.006-.016M25.818 132.084c0-.002 0-.007-.002-.01a.157.157 0 0 1-.005-.036M25.811 132.038v-.036M38.922 132.002a.32.32 0 0 1-.005.069.109.109 0 0 1-.007.024c-.003.006-.005.01-.009.013M38.901 132.108l-.004.001M39.005 132.002h-.066M38.938 132.002h-.015M38.898 101.409c.008 0 .011.01.014.02a.334.334 0 0 1 .01.052M38.921 101.48l.001.037M25.707 101.4h13.32V83.353h-13.32z"/></g></svg>