<?xml version="1.0" encoding="UTF-8"?>
<svg width="63px" height="102px" viewBox="0 0 63 102" version="1.1" xmlns="http://www.w3.org/2000/svg" xmlns:xlink="http://www.w3.org/1999/xlink">
    <title>Artboard</title>
    <g id="Artboard" stroke="none" stroke-width="1" fill="none" fill-rule="evenodd">
        <g id="icon" stroke="#000000" stroke-linecap="round" stroke-linejoin="round" stroke-width="0.8">
            <line x1="62.253" y1="100.753" x2="1.5" y2="100.5" id="Path"></line>
            <line x1="62.253" y1="52.97" x2="62.253" y2="54.165" id="Path"></line>
            <line x1="62.253" y1="55.324" x2="62.253" y2="56.8" id="Path"></line>
            <line x1="62.253" y1="57.819" x2="62.253" y2="59.277" id="Path"></line>
            <line x1="62.253" y1="60.296" x2="62.253" y2="61.772" id="Path"></line>
            <line x1="62.253" y1="62.79" x2="62.253" y2="64.266" id="Path"></line>
            <line x1="62.253" y1="65.285" x2="62.253" y2="66.761" id="Path"></line>
            <line x1="62.253" y1="67.78" x2="62.253" y2="69.254" id="Path"></line>
            <line x1="62.253" y1="70.256" x2="62.253" y2="71.732" id="Path"></line>
            <line x1="62.253" y1="72.75" x2="62.253" y2="74.228" id="Path"></line>
            <line x1="62.253" y1="75.245" x2="62.253" y2="76.721" id="Path"></line>
            <line x1="62.253" y1="77.74" x2="62.253" y2="79.216" id="Path"></line>
            <line x1="62.253" y1="80.217" x2="62.253" y2="81.693" id="Path"></line>
            <line x1="62.253" y1="82.711" x2="62.253" y2="84.187" id="Path"></line>
            <line x1="62.253" y1="85.206" x2="62.253" y2="86.682" id="Path"></line>
            <line x1="62.253" y1="87.7" x2="62.253" y2="89.176" id="Path"></line>
            <line x1="62.253" y1="90.177" x2="62.253" y2="91.671" id="Path"></line>
            <line x1="62.253" y1="92.672" x2="62.253" y2="94.148" id="Path"></line>
            <line x1="62.253" y1="94.148" x2="62.253" y2="100.753" id="Path"></line>
            <line x1="62.253" y1="92.672" x2="62.253" y2="91.67" id="Path"></line>
            <line x1="62.253" y1="90.177" x2="62.253" y2="89.176" id="Path"></line>
            <line x1="62.253" y1="87.683" x2="62.253" y2="86.681" id="Path"></line>
            <line x1="62.253" y1="85.206" x2="62.253" y2="84.187" id="Path"></line>
            <line x1="62.253" y1="82.711" x2="62.253" y2="81.71" id="Path"></line>
            <line x1="62.253" y1="80.217" x2="62.253" y2="79.215" id="Path"></line>
            <line x1="62.253" y1="77.74" x2="62.253" y2="76.721" id="Path"></line>
            <line x1="62.253" y1="75.245" x2="62.253" y2="74.226" id="Path"></line>
            <line x1="62.253" y1="72.751" x2="62.253" y2="71.732" id="Path"></line>
            <line x1="62.253" y1="70.256" x2="62.253" y2="69.255" id="Path"></line>
            <line x1="62.253" y1="67.779" x2="62.253" y2="66.76" id="Path"></line>
            <line x1="62.253" y1="65.285" x2="62.253" y2="64.266" id="Path"></line>
            <line x1="62.253" y1="62.79" x2="62.253" y2="61.771" id="Path"></line>
            <line x1="62.253" y1="60.296" x2="62.253" y2="59.294" id="Path"></line>
            <line x1="62.253" y1="57.819" x2="62.253" y2="56.8" id="Path"></line>
            <line x1="62.253" y1="55.324" x2="62.253" y2="54.165" id="Path"></line>
            <line x1="62.253" y1="52.97" x2="62.253" y2="49.826" id="Path"></line>
            <polyline id="Path" points="62.235 100.753 62.235 100.823 62.218 100.841 62.218 100.876 62.2 100.893 62.182 100.912 62.182 100.929 62.165 100.929 62.165 100.946 62.147 100.946 62.147 100.964 62.13 100.964 62.112 100.981 62.095 100.981 62.077 100.999 62.059 100.999 62.042 101.016 61.972 101.016"></polyline>
            <polyline id="Path" points="1.7 101.016 1.628 101.016 1.61 101 1.593 101 1.576 100.982 1.558 100.982 1.541 100.965 1.522 100.965 1.522 100.947 1.506 100.947 1.506 100.929 1.488 100.929 1.488 100.913 1.471 100.894 1.453 100.877 1.453 100.841 1.436 100.824 1.436 100.754"></polyline>
            <line x1="1.418" y1="100.753" x2="1.5" y2="52.5" id="Path"></line>
            <line x1="1.418" y1="52.97" x2="1.418" y2="49.826" id="Path"></line>
            <line x1="46.442" y1="48.702" x2="62.27" y2="48.702" id="Path"></line>
            <line x1="46.442" y1="48.702" x2="1.4" y2="48.702" id="Path"></line>
            <line x1="1.418" y1="49.72" x2="46.443" y2="49.72" id="Path"></line>
            <line x1="46.442" y1="49.72" x2="62.253" y2="49.72" id="Path"></line>
            <line x1="62.165" y1="48.702" x2="62.165" y2="48.596" id="Path"></line>
            <line x1="1.506" y1="48.702" x2="1.506" y2="48.596" id="Path"></line>
            <line x1="62.113" y1="49.72" x2="62.113" y2="49.826" id="Path"></line>
            <line x1="1.559" y1="49.72" x2="1.559" y2="49.826" id="Path"></line>
            <line x1="62.27" y1="48.702" x2="62.253" y2="49.721" id="Path"></line>
            <line x1="1.418" y1="49.72" x2="1.4" y2="48.701" id="Path"></line>
            <line x1="5.982" y1="1.4" x2="5.855" y2="1.4" id="Path"></line>
            <polyline id="Path" points="22.323 1.41 22.182 1.41 22.376 1.41"></polyline>
            <polyline id="Path" points="41.295 1.41 41.523 1.41 41.523 1.428 41.541 1.428"></polyline>
            <line x1="61.99" y1="1.41" x2="1.68" y2="1.41" id="Path"></line>
            <line x1="60.163" y1="48.596" x2="46.424" y2="48.596" id="Path"></line>
            <line x1="3.509" y1="48.596" x2="2.19" y2="48.596" id="Path"></line>
            <line x1="61.884" y1="48.596" x2="61.427" y2="48.596" id="Path"></line>
            <line x1="46.425" y1="48.596" x2="3.508" y2="48.596" id="Path"></line>
            <polyline id="Path" points="61.99 1.41 62.041 1.41 62.059 1.428 62.094 1.428 62.111 1.446 62.129 1.446 62.147 1.464 62.164 1.464 62.164 1.48 62.182 1.48 62.182 1.5 62.199 1.5 62.199 1.517 62.217 1.517 62.217 1.535 62.234 1.553 62.234 1.57 62.251 1.588 62.251 1.623 62.27 1.64 62.27 1.692"></polyline>
            <polyline id="Path" points="1.4 1.692 1.4 1.639 1.418 1.621 1.418 1.586 1.435 1.57 1.435 1.55 1.453 1.533 1.453 1.516 1.47 1.516 1.47 1.498 1.488 1.498 1.488 1.481 1.506 1.481 1.506 1.464 1.523 1.464 1.542 1.446 1.558 1.446 1.577 1.43 1.61 1.43 1.628 1.41 1.682 1.41"></polyline>
            <line x1="59.952" y1="1.41" x2="60.742" y2="1.41" id="Path"></line>
            <line x1="2.929" y1="1.41" x2="3.719" y2="1.41" id="Path"></line>
            <line x1="2.19" y1="48.596" x2="1.472" y2="48.596" id="Path"></line>
            <line x1="62.095" y1="48.596" x2="61.883" y2="48.596" id="Path"></line>
            <line x1="61.427" y1="48.596" x2="60.163" y2="48.596" id="Path"></line>
            <line x1="62.27" y1="48.526" x2="62.27" y2="1.692" id="Path"></line>
            <line x1="1.4" y1="48.526" x2="1.4" y2="1.692" id="Path"></line>
            <line x1="60.213" y1="46.184" x2="60.213" y2="4.023" id="Path"></line>
            <line x1="46.44" y1="4.023" x2="46.44" y2="46.184" id="Path"></line>
            <line x1="3.453" y1="4.023" x2="3.453" y2="46.184" id="Path"></line>
            <line x1="17.226" y1="46.184" x2="17.226" y2="4.023" id="Path"></line>
        </g>
        <g id="Group" transform="translate(2.500000, 52.000000)" stroke="#000000" stroke-width="0.8">
            <circle id="Oval" cx="1" cy="1" r="1"></circle>
            <circle id="Oval-Copy" cx="1" cy="4" r="1"></circle>
            <circle id="Oval" cx="1" cy="7" r="1"></circle>
            <circle id="Oval-Copy" cx="1" cy="10" r="1"></circle>
            <circle id="Oval" cx="1" cy="13" r="1"></circle>
            <circle id="Oval-Copy" cx="1" cy="16" r="1"></circle>
            <circle id="Oval" cx="1" cy="19" r="1"></circle>
            <circle id="Oval-Copy" cx="1" cy="22" r="1"></circle>
            <circle id="Oval" cx="1" cy="25" r="1"></circle>
            <circle id="Oval-Copy" cx="1" cy="28" r="1"></circle>
            <circle id="Oval" cx="1" cy="31" r="1"></circle>
            <circle id="Oval-Copy" cx="1" cy="34" r="1"></circle>
            <circle id="Oval" cx="1" cy="37" r="1"></circle>
            <circle id="Oval-Copy" cx="1" cy="40" r="1"></circle>
            <circle id="Oval" cx="1" cy="43" r="1"></circle>
            <circle id="Oval-Copy" cx="1" cy="46" r="1"></circle>
            <circle id="Oval" cx="4" cy="1" r="1"></circle>
            <circle id="Oval-Copy" cx="4" cy="4" r="1"></circle>
            <circle id="Oval" cx="4" cy="7" r="1"></circle>
            <circle id="Oval-Copy" cx="4" cy="10" r="1"></circle>
            <circle id="Oval" cx="4" cy="13" r="1"></circle>
            <circle id="Oval-Copy" cx="4" cy="16" r="1"></circle>
            <circle id="Oval" cx="4" cy="19" r="1"></circle>
            <circle id="Oval-Copy" cx="4" cy="22" r="1"></circle>
            <circle id="Oval" cx="4" cy="25" r="1"></circle>
            <circle id="Oval-Copy" cx="4" cy="28" r="1"></circle>
            <circle id="Oval" cx="4" cy="31" r="1"></circle>
            <circle id="Oval-Copy" cx="4" cy="34" r="1"></circle>
            <circle id="Oval" cx="4" cy="37" r="1"></circle>
            <circle id="Oval-Copy" cx="4" cy="40" r="1"></circle>
            <circle id="Oval" cx="4" cy="43" r="1"></circle>
            <circle id="Oval-Copy" cx="4" cy="46" r="1"></circle>
            <circle id="Oval" cx="7" cy="1" r="1"></circle>
            <circle id="Oval-Copy" cx="7" cy="4" r="1"></circle>
            <circle id="Oval" cx="7" cy="7" r="1"></circle>
            <circle id="Oval-Copy" cx="7" cy="10" r="1"></circle>
            <circle id="Oval" cx="7" cy="13" r="1"></circle>
            <circle id="Oval-Copy" cx="7" cy="16" r="1"></circle>
            <circle id="Oval" cx="7" cy="19" r="1"></circle>
            <circle id="Oval-Copy" cx="7" cy="22" r="1"></circle>
            <circle id="Oval" cx="7" cy="25" r="1"></circle>
            <circle id="Oval-Copy" cx="7" cy="28" r="1"></circle>
            <circle id="Oval" cx="7" cy="31" r="1"></circle>
            <circle id="Oval-Copy" cx="7" cy="34" r="1"></circle>
            <circle id="Oval" cx="7" cy="37" r="1"></circle>
            <circle id="Oval-Copy" cx="7" cy="40" r="1"></circle>
            <circle id="Oval" cx="7" cy="43" r="1"></circle>
            <circle id="Oval-Copy" cx="7" cy="46" r="1"></circle>
            <circle id="Oval" cx="10" cy="1" r="1"></circle>
            <circle id="Oval-Copy" cx="10" cy="4" r="1"></circle>
            <circle id="Oval" cx="10" cy="7" r="1"></circle>
            <circle id="Oval-Copy" cx="10" cy="10" r="1"></circle>
            <circle id="Oval" cx="10" cy="13" r="1"></circle>
            <circle id="Oval-Copy" cx="10" cy="16" r="1"></circle>
            <circle id="Oval" cx="10" cy="19" r="1"></circle>
            <circle id="Oval-Copy" cx="10" cy="22" r="1"></circle>
            <circle id="Oval" cx="10" cy="25" r="1"></circle>
            <circle id="Oval-Copy" cx="10" cy="28" r="1"></circle>
            <circle id="Oval" cx="10" cy="31" r="1"></circle>
            <circle id="Oval-Copy" cx="10" cy="34" r="1"></circle>
            <circle id="Oval" cx="10" cy="37" r="1"></circle>
            <circle id="Oval-Copy" cx="10" cy="40" r="1"></circle>
            <circle id="Oval" cx="10" cy="43" r="1"></circle>
            <circle id="Oval-Copy" cx="10" cy="46" r="1"></circle>
            <circle id="Oval" cx="13" cy="1" r="1"></circle>
            <circle id="Oval-Copy" cx="13" cy="4" r="1"></circle>
            <circle id="Oval" cx="13" cy="7" r="1"></circle>
            <circle id="Oval-Copy" cx="13" cy="10" r="1"></circle>
            <circle id="Oval" cx="13" cy="13" r="1"></circle>
            <circle id="Oval-Copy" cx="13" cy="16" r="1"></circle>
            <circle id="Oval" cx="13" cy="19" r="1"></circle>
            <circle id="Oval-Copy" cx="13" cy="22" r="1"></circle>
            <circle id="Oval" cx="13" cy="25" r="1"></circle>
            <circle id="Oval-Copy" cx="13" cy="28" r="1"></circle>
            <circle id="Oval" cx="13" cy="31" r="1"></circle>
            <circle id="Oval-Copy" cx="13" cy="34" r="1"></circle>
            <circle id="Oval" cx="13" cy="37" r="1"></circle>
            <circle id="Oval-Copy" cx="13" cy="40" r="1"></circle>
            <circle id="Oval" cx="13" cy="43" r="1"></circle>
            <circle id="Oval-Copy" cx="13" cy="46" r="1"></circle>
            <circle id="Oval" cx="16" cy="1" r="1"></circle>
            <circle id="Oval-Copy" cx="16" cy="4" r="1"></circle>
            <circle id="Oval" cx="16" cy="7" r="1"></circle>
            <circle id="Oval-Copy" cx="16" cy="10" r="1"></circle>
            <circle id="Oval" cx="16" cy="13" r="1"></circle>
            <circle id="Oval-Copy" cx="16" cy="16" r="1"></circle>
            <circle id="Oval" cx="16" cy="19" r="1"></circle>
            <circle id="Oval-Copy" cx="16" cy="22" r="1"></circle>
            <circle id="Oval" cx="16" cy="25" r="1"></circle>
            <circle id="Oval-Copy" cx="16" cy="28" r="1"></circle>
            <circle id="Oval" cx="16" cy="31" r="1"></circle>
            <circle id="Oval-Copy" cx="16" cy="34" r="1"></circle>
            <circle id="Oval" cx="16" cy="37" r="1"></circle>
            <circle id="Oval-Copy" cx="16" cy="40" r="1"></circle>
            <circle id="Oval" cx="16" cy="43" r="1"></circle>
            <circle id="Oval-Copy" cx="16" cy="46" r="1"></circle>
            <circle id="Oval" cx="19" cy="1" r="1"></circle>
            <circle id="Oval-Copy" cx="19" cy="4" r="1"></circle>
            <circle id="Oval" cx="19" cy="7" r="1"></circle>
            <circle id="Oval-Copy" cx="19" cy="10" r="1"></circle>
            <circle id="Oval" cx="19" cy="13" r="1"></circle>
            <circle id="Oval-Copy" cx="19" cy="16" r="1"></circle>
            <circle id="Oval" cx="19" cy="19" r="1"></circle>
            <circle id="Oval-Copy" cx="19" cy="22" r="1"></circle>
            <circle id="Oval" cx="19" cy="25" r="1"></circle>
            <circle id="Oval-Copy" cx="19" cy="28" r="1"></circle>
            <circle id="Oval" cx="19" cy="31" r="1"></circle>
            <circle id="Oval-Copy" cx="19" cy="34" r="1"></circle>
            <circle id="Oval" cx="19" cy="37" r="1"></circle>
            <circle id="Oval-Copy" cx="19" cy="40" r="1"></circle>
            <circle id="Oval" cx="19" cy="43" r="1"></circle>
            <circle id="Oval-Copy" cx="19" cy="46" r="1"></circle>
            <circle id="Oval" cx="22" cy="1" r="1"></circle>
            <circle id="Oval-Copy" cx="22" cy="4" r="1"></circle>
            <circle id="Oval" cx="22" cy="7" r="1"></circle>
            <circle id="Oval-Copy" cx="22" cy="10" r="1"></circle>
            <circle id="Oval" cx="22" cy="13" r="1"></circle>
            <circle id="Oval-Copy" cx="22" cy="16" r="1"></circle>
            <circle id="Oval" cx="22" cy="19" r="1"></circle>
            <circle id="Oval-Copy" cx="22" cy="22" r="1"></circle>
            <circle id="Oval" cx="22" cy="25" r="1"></circle>
            <circle id="Oval-Copy" cx="22" cy="28" r="1"></circle>
            <circle id="Oval" cx="22" cy="31" r="1"></circle>
            <circle id="Oval-Copy" cx="22" cy="34" r="1"></circle>
            <circle id="Oval" cx="22" cy="37" r="1"></circle>
            <circle id="Oval-Copy" cx="22" cy="40" r="1"></circle>
            <circle id="Oval" cx="22" cy="43" r="1"></circle>
            <circle id="Oval-Copy" cx="22" cy="46" r="1"></circle>
            <circle id="Oval" cx="25" cy="1" r="1"></circle>
            <circle id="Oval-Copy" cx="25" cy="4" r="1"></circle>
            <circle id="Oval" cx="25" cy="7" r="1"></circle>
            <circle id="Oval-Copy" cx="25" cy="10" r="1"></circle>
            <circle id="Oval" cx="25" cy="13" r="1"></circle>
            <circle id="Oval-Copy" cx="25" cy="16" r="1"></circle>
            <circle id="Oval" cx="25" cy="19" r="1"></circle>
            <circle id="Oval-Copy" cx="25" cy="22" r="1"></circle>
            <circle id="Oval" cx="25" cy="25" r="1"></circle>
            <circle id="Oval-Copy" cx="25" cy="28" r="1"></circle>
            <circle id="Oval" cx="25" cy="31" r="1"></circle>
            <circle id="Oval-Copy" cx="25" cy="34" r="1"></circle>
            <circle id="Oval" cx="25" cy="37" r="1"></circle>
            <circle id="Oval-Copy" cx="25" cy="40" r="1"></circle>
            <circle id="Oval" cx="25" cy="43" r="1"></circle>
            <circle id="Oval-Copy" cx="25" cy="46" r="1"></circle>
            <circle id="Oval" cx="28" cy="1" r="1"></circle>
            <circle id="Oval-Copy" cx="28" cy="4" r="1"></circle>
            <circle id="Oval" cx="28" cy="7" r="1"></circle>
            <circle id="Oval-Copy" cx="28" cy="10" r="1"></circle>
            <circle id="Oval" cx="28" cy="13" r="1"></circle>
            <circle id="Oval-Copy" cx="28" cy="16" r="1"></circle>
            <circle id="Oval" cx="28" cy="19" r="1"></circle>
            <circle id="Oval-Copy" cx="28" cy="22" r="1"></circle>
            <circle id="Oval" cx="28" cy="25" r="1"></circle>
            <circle id="Oval-Copy" cx="28" cy="28" r="1"></circle>
            <circle id="Oval" cx="28" cy="31" r="1"></circle>
            <circle id="Oval-Copy" cx="28" cy="34" r="1"></circle>
            <circle id="Oval" cx="28" cy="37" r="1"></circle>
            <circle id="Oval-Copy" cx="28" cy="40" r="1"></circle>
            <circle id="Oval" cx="28" cy="43" r="1"></circle>
            <circle id="Oval-Copy" cx="28" cy="46" r="1"></circle>
            <circle id="Oval" cx="31" cy="1" r="1"></circle>
            <circle id="Oval-Copy" cx="31" cy="4" r="1"></circle>
            <circle id="Oval" cx="31" cy="7" r="1"></circle>
            <circle id="Oval-Copy" cx="31" cy="10" r="1"></circle>
            <circle id="Oval" cx="31" cy="13" r="1"></circle>
            <circle id="Oval-Copy" cx="31" cy="16" r="1"></circle>
            <circle id="Oval" cx="31" cy="19" r="1"></circle>
            <circle id="Oval-Copy" cx="31" cy="22" r="1"></circle>
            <circle id="Oval" cx="31" cy="25" r="1"></circle>
            <circle id="Oval-Copy" cx="31" cy="28" r="1"></circle>
            <circle id="Oval" cx="31" cy="31" r="1"></circle>
            <circle id="Oval-Copy" cx="31" cy="34" r="1"></circle>
            <circle id="Oval" cx="31" cy="37" r="1"></circle>
            <circle id="Oval-Copy" cx="31" cy="40" r="1"></circle>
            <circle id="Oval" cx="31" cy="43" r="1"></circle>
            <circle id="Oval-Copy" cx="31" cy="46" r="1"></circle>
            <circle id="Oval" cx="34" cy="1" r="1"></circle>
            <circle id="Oval-Copy" cx="34" cy="4" r="1"></circle>
            <circle id="Oval" cx="34" cy="7" r="1"></circle>
            <circle id="Oval-Copy" cx="34" cy="10" r="1"></circle>
            <circle id="Oval" cx="34" cy="13" r="1"></circle>
            <circle id="Oval-Copy" cx="34" cy="16" r="1"></circle>
            <circle id="Oval" cx="34" cy="19" r="1"></circle>
            <circle id="Oval-Copy" cx="34" cy="22" r="1"></circle>
            <circle id="Oval" cx="34" cy="25" r="1"></circle>
            <circle id="Oval-Copy" cx="34" cy="28" r="1"></circle>
            <circle id="Oval" cx="34" cy="31" r="1"></circle>
            <circle id="Oval-Copy" cx="34" cy="34" r="1"></circle>
            <circle id="Oval" cx="34" cy="37" r="1"></circle>
            <circle id="Oval-Copy" cx="34" cy="40" r="1"></circle>
            <circle id="Oval" cx="34" cy="43" r="1"></circle>
            <circle id="Oval-Copy" cx="34" cy="46" r="1"></circle>
            <circle id="Oval" cx="37" cy="1" r="1"></circle>
            <circle id="Oval-Copy" cx="37" cy="4" r="1"></circle>
            <circle id="Oval" cx="37" cy="7" r="1"></circle>
            <circle id="Oval-Copy" cx="37" cy="10" r="1"></circle>
            <circle id="Oval" cx="37" cy="13" r="1"></circle>
            <circle id="Oval-Copy" cx="37" cy="16" r="1"></circle>
            <circle id="Oval" cx="37" cy="19" r="1"></circle>
            <circle id="Oval-Copy" cx="37" cy="22" r="1"></circle>
            <circle id="Oval" cx="37" cy="25" r="1"></circle>
            <circle id="Oval-Copy" cx="37" cy="28" r="1"></circle>
            <circle id="Oval" cx="37" cy="31" r="1"></circle>
            <circle id="Oval-Copy" cx="37" cy="34" r="1"></circle>
            <circle id="Oval" cx="37" cy="37" r="1"></circle>
            <circle id="Oval-Copy" cx="37" cy="40" r="1"></circle>
            <circle id="Oval" cx="37" cy="43" r="1"></circle>
            <circle id="Oval-Copy" cx="37" cy="46" r="1"></circle>
            <circle id="Oval" cx="40" cy="1" r="1"></circle>
            <circle id="Oval-Copy" cx="40" cy="4" r="1"></circle>
            <circle id="Oval" cx="40" cy="7" r="1"></circle>
            <circle id="Oval-Copy" cx="40" cy="10" r="1"></circle>
            <circle id="Oval" cx="40" cy="13" r="1"></circle>
            <circle id="Oval-Copy" cx="40" cy="16" r="1"></circle>
            <circle id="Oval" cx="40" cy="19" r="1"></circle>
            <circle id="Oval-Copy" cx="40" cy="22" r="1"></circle>
            <circle id="Oval" cx="40" cy="25" r="1"></circle>
            <circle id="Oval-Copy" cx="40" cy="28" r="1"></circle>
            <circle id="Oval" cx="40" cy="31" r="1"></circle>
            <circle id="Oval-Copy" cx="40" cy="34" r="1"></circle>
            <circle id="Oval" cx="40" cy="37" r="1"></circle>
            <circle id="Oval-Copy" cx="40" cy="40" r="1"></circle>
            <circle id="Oval" cx="40" cy="43" r="1"></circle>
            <circle id="Oval-Copy" cx="40" cy="46" r="1"></circle>
            <circle id="Oval" cx="43" cy="1" r="1"></circle>
            <circle id="Oval-Copy" cx="43" cy="4" r="1"></circle>
            <circle id="Oval" cx="43" cy="7" r="1"></circle>
            <circle id="Oval-Copy" cx="43" cy="10" r="1"></circle>
            <circle id="Oval" cx="43" cy="13" r="1"></circle>
            <circle id="Oval-Copy" cx="43" cy="16" r="1"></circle>
            <circle id="Oval" cx="43" cy="19" r="1"></circle>
            <circle id="Oval-Copy" cx="43" cy="22" r="1"></circle>
            <circle id="Oval" cx="43" cy="25" r="1"></circle>
            <circle id="Oval-Copy" cx="43" cy="28" r="1"></circle>
            <circle id="Oval" cx="43" cy="31" r="1"></circle>
            <circle id="Oval-Copy" cx="43" cy="34" r="1"></circle>
            <circle id="Oval" cx="43" cy="37" r="1"></circle>
            <circle id="Oval-Copy" cx="43" cy="40" r="1"></circle>
            <circle id="Oval" cx="43" cy="43" r="1"></circle>
            <circle id="Oval-Copy" cx="43" cy="46" r="1"></circle>
            <circle id="Oval" cx="46" cy="1" r="1"></circle>
            <circle id="Oval-Copy" cx="46" cy="4" r="1"></circle>
            <circle id="Oval" cx="46" cy="7" r="1"></circle>
            <circle id="Oval-Copy" cx="46" cy="10" r="1"></circle>
            <circle id="Oval" cx="46" cy="13" r="1"></circle>
            <circle id="Oval-Copy" cx="46" cy="16" r="1"></circle>
            <circle id="Oval" cx="46" cy="19" r="1"></circle>
            <circle id="Oval-Copy" cx="46" cy="22" r="1"></circle>
            <circle id="Oval" cx="46" cy="25" r="1"></circle>
            <circle id="Oval-Copy" cx="46" cy="28" r="1"></circle>
            <circle id="Oval" cx="46" cy="31" r="1"></circle>
            <circle id="Oval-Copy" cx="46" cy="34" r="1"></circle>
            <circle id="Oval" cx="46" cy="37" r="1"></circle>
            <circle id="Oval-Copy" cx="46" cy="40" r="1"></circle>
            <circle id="Oval" cx="46" cy="43" r="1"></circle>
            <circle id="Oval-Copy" cx="46" cy="46" r="1"></circle>
            <circle id="Oval" cx="49" cy="1" r="1"></circle>
            <circle id="Oval-Copy" cx="49" cy="4" r="1"></circle>
            <circle id="Oval" cx="49" cy="7" r="1"></circle>
            <circle id="Oval-Copy" cx="49" cy="10" r="1"></circle>
            <circle id="Oval" cx="49" cy="13" r="1"></circle>
            <circle id="Oval-Copy" cx="49" cy="16" r="1"></circle>
            <circle id="Oval" cx="49" cy="19" r="1"></circle>
            <circle id="Oval-Copy" cx="49" cy="22" r="1"></circle>
            <circle id="Oval" cx="49" cy="25" r="1"></circle>
            <circle id="Oval-Copy" cx="49" cy="28" r="1"></circle>
            <circle id="Oval" cx="49" cy="31" r="1"></circle>
            <circle id="Oval-Copy" cx="49" cy="34" r="1"></circle>
            <circle id="Oval" cx="49" cy="37" r="1"></circle>
            <circle id="Oval-Copy" cx="49" cy="40" r="1"></circle>
            <circle id="Oval" cx="49" cy="43" r="1"></circle>
            <circle id="Oval-Copy" cx="49" cy="46" r="1"></circle>
            <circle id="Oval" cx="52" cy="1" r="1"></circle>
            <circle id="Oval-Copy" cx="52" cy="4" r="1"></circle>
            <circle id="Oval" cx="52" cy="7" r="1"></circle>
            <circle id="Oval-Copy" cx="52" cy="10" r="1"></circle>
            <circle id="Oval" cx="52" cy="13" r="1"></circle>
            <circle id="Oval-Copy" cx="52" cy="16" r="1"></circle>
            <circle id="Oval" cx="52" cy="19" r="1"></circle>
            <circle id="Oval-Copy" cx="52" cy="22" r="1"></circle>
            <circle id="Oval" cx="52" cy="25" r="1"></circle>
            <circle id="Oval-Copy" cx="52" cy="28" r="1"></circle>
            <circle id="Oval" cx="52" cy="31" r="1"></circle>
            <circle id="Oval-Copy" cx="52" cy="34" r="1"></circle>
            <circle id="Oval" cx="52" cy="37" r="1"></circle>
            <circle id="Oval-Copy" cx="52" cy="40" r="1"></circle>
            <circle id="Oval" cx="52" cy="43" r="1"></circle>
            <circle id="Oval-Copy" cx="52" cy="46" r="1"></circle>
            <circle id="Oval" cx="55" cy="1" r="1"></circle>
            <circle id="Oval-Copy" cx="55" cy="4" r="1"></circle>
            <circle id="Oval" cx="55" cy="7" r="1"></circle>
            <circle id="Oval-Copy" cx="55" cy="10" r="1"></circle>
            <circle id="Oval" cx="55" cy="13" r="1"></circle>
            <circle id="Oval-Copy" cx="55" cy="16" r="1"></circle>
            <circle id="Oval" cx="55" cy="19" r="1"></circle>
            <circle id="Oval-Copy" cx="55" cy="22" r="1"></circle>
            <circle id="Oval" cx="55" cy="25" r="1"></circle>
            <circle id="Oval-Copy" cx="55" cy="28" r="1"></circle>
            <circle id="Oval" cx="55" cy="31" r="1"></circle>
            <circle id="Oval-Copy" cx="55" cy="34" r="1"></circle>
            <circle id="Oval" cx="55" cy="37" r="1"></circle>
            <circle id="Oval-Copy" cx="55" cy="40" r="1"></circle>
            <circle id="Oval" cx="55" cy="43" r="1"></circle>
            <circle id="Oval-Copy" cx="55" cy="46" r="1"></circle>
            <circle id="Oval" cx="58" cy="1" r="1"></circle>
            <circle id="Oval-Copy" cx="58" cy="4" r="1"></circle>
            <circle id="Oval" cx="58" cy="7" r="1"></circle>
            <circle id="Oval-Copy" cx="58" cy="10" r="1"></circle>
            <circle id="Oval" cx="58" cy="13" r="1"></circle>
            <circle id="Oval-Copy" cx="58" cy="16" r="1"></circle>
            <circle id="Oval" cx="58" cy="19" r="1"></circle>
            <circle id="Oval-Copy" cx="58" cy="22" r="1"></circle>
            <circle id="Oval" cx="58" cy="25" r="1"></circle>
            <circle id="Oval-Copy" cx="58" cy="28" r="1"></circle>
            <circle id="Oval" cx="58" cy="31" r="1"></circle>
            <circle id="Oval-Copy" cx="58" cy="34" r="1"></circle>
            <circle id="Oval" cx="58" cy="37" r="1"></circle>
            <circle id="Oval-Copy" cx="58" cy="40" r="1"></circle>
            <circle id="Oval" cx="58" cy="43" r="1"></circle>
            <circle id="Oval-Copy" cx="58" cy="46" r="1"></circle>
        </g>
    </g>
</svg>