<svg width="70" height="209" viewBox="0 0 70 209" xmlns="http://www.w3.org/2000/svg"><g stroke="#000" fill="none" fill-rule="evenodd"><path d="M36.92 173.661h.085" stroke-linejoin="bevel"/><path d="M15.45 2.05h38.684V.591H15.45z"/><path stroke-linejoin="bevel" d="m48.836 205.691.123-7.031M20.722 205.69l-.123-7.03M54.108.591a.092.092 0 0 0-.092-.09M58.24 2.203a.153.153 0 0 0-.154-.151M68.515 207.64a.31.31 0 0 0 .309-.326M48.744 205.782c.05 0 .092-.042.092-.092M15.542.5a.09.09 0 0 0-.092.091M11.472 2.05a.154.154 0 0 0-.154.152M20.722 205.69c0 .05.042.092.092.092M28.975 198.242c-.017.052-.03.103-.046.156M40.629 198.397a4.597 4.597 0 0 0-.046-.156M15.543.5h38.473M15.449.591h38.659M58.086 2.05H11.473M68.171 207.71l.003-.07M58.249 2.67l-.009-.468M63.931 207.71l-.003-.07M68.752 205.929l.072 1.385M52.535 207.71l.003-.07M58.312 2.667 58 118.157M58.001 118.158l.31 80.503M54.108.591l.025 1.459M48.836 205.691l.123-7.03M48.294 207.71l-.003-.07M36.899 207.71l.003-.07M40.629 198.397v.263M28.939 118.777v.031M28.93 198.661v-.263M32.659 207.71l-.003-.07M58.001 118.158H11.557M21.263 207.71l.003-.07M15.449.591l-.025 1.459M20.722 205.69l-.123-7.03M5.627 207.71l.003-.07M11.318 2.203l-.008.468M11.557 118.158l-.311 80.503M11.246 2.667l.312 115.49M17.023 207.71l-.002-.07M58.31 198.661H11.248"/><path stroke-linejoin="bevel" d="M68.752 205.93H1l.042 1.71h67.474M36.908 149.64a2.251 2.251 0 1 1-4.503.002 2.251 2.251 0 0 1 4.503-.001z"/><path stroke-linejoin="bevel" d="M28.79 198.685h11.733v-54.537H28.79z"/><path stroke-linejoin="bevel" d="M28.78 144.206h11.755v-25.398H28.78zM34.656 163.563a2.24 2.24 0 0 1-2.234-2.234v-5.118a2.24 2.24 0 0 1 2.234-2.234 2.24 2.24 0 0 1 2.234 2.234v5.117a2.24 2.24 0 0 1-2.234 2.234zM36.908 168.008a2.251 2.251 0 1 1-4.503 0 2.251 2.251 0 0 1 4.503 0zM36.908 173.862a2.25 2.25 0 0 1-2.251 2.25 2.25 2.25 0 1 1 0-4.5 2.25 2.25 0 0 1 2.25 2.25zM36.908 179.662a2.25 2.25 0 1 1-4.501 0 2.25 2.25 0 0 1 4.5 0z"/></g></svg>